<svg xmlns="http://www.w3.org/2000/svg" viewBox="0 0 400 300" width="400" height="300">
    <!-- Board Background -->
    <rect x="50" y="50" width="300" height="200" rx="20" ry="20" fill="#f4f4f4" stroke="#000" stroke-width="2"/>

    <!-- Microcontroller Chip -->
    <rect x="150" y="100" width="100" height="60" rx="10" ry="10" fill="#333" />
    <text x="200" y="130" font-family="Arial" font-size="14" text-anchor="middle" fill="#fff">ESP</text>

    <!-- Pins -->
    <!-- Left Side Pins -->
    <line x1="50" y1="70" x2="50" y2="230" stroke="#333" stroke-width="2"/>
    <line x1="50" y1="90" x2="40" y2="90" stroke="#333" stroke-width="2"/>
    <line x1="50" y1="110" x2="40" y2="110" stroke="#333" stroke-width="2"/>
    <line x1="50" y1="130" x2="40" y2="130" stroke="#333" stroke-width="2"/>
    <line x1="50" y1="150" x2="40" y2="150" stroke="#333" stroke-width="2"/>
    <line x1="50" y1="170" x2="40" y2="170" stroke="#333" stroke-width="2"/>
    <line x1="50" y1="190" x2="40" y2="190" stroke="#333" stroke-width="2"/>
    <line x1="50" y1="210" x2="40" y2="210" stroke="#333" stroke-width="2"/>
    <line x1="50" y1="230" x2="40" y2="230" stroke="#333" stroke-width="2"/>

    <!-- Right Side Pins -->
    <line x1="350" y1="70" x2="350" y2="230" stroke="#333" stroke-width="2"/>
    <line x1="350" y1="90" x2="360" y2="90" stroke="#333" stroke-width="2"/>
    <line x1="350" y1="110" x2="360" y2="110" stroke="#333" stroke-width="2"/>
    <line x1="350" y1="130" x2="360" y2="130" stroke="#333" stroke-width="2"/>
    <line x1="350" y1="150" x2="360" y2="150" stroke="#333" stroke-width="2"/>
    <line x1="350" y1="170" x2="360" y2="170" stroke="#333" stroke-width="2"/>
    <line x1="350" y1="190" x2="360" y2="190" stroke="#333" stroke-width="2"/>
    <line x1="350" y1="210" x2="360" y2="210" stroke="#333" stroke-width="2"/>
    <line x1="350" y1="230" x2="360" y2="230" stroke="#333" stroke-width="2"/>

    <!-- Additional Components -->
    <!-- Power Pin -->
    <circle cx="200" cy="250" r="20" fill="#4caf50" />
    <text x="200" y="250" font-family="Arial" font-size="12" text-anchor="middle" fill="#fff">VCC</text>

    <!-- Ground Pin -->
    <circle cx="100" cy="250" r="20" fill="#f44336" />
    <text x="100" y="250" font-family="Arial" font-size="12" text-anchor="middle" fill="#fff">GND</text>

</svg>
